<mxfile host="app.diagrams.net" modified="2023-09-08T07:28:39.468Z" agent="Mozilla/5.0 (Macintosh; Intel Mac OS X 10_15_7) AppleWebKit/537.36 (KHTML, like Gecko) Chrome/116.0.0.0 Safari/537.36" etag="xPHuV3LE9kF0Xjg2yJ-c" version="21.7.2" type="github">
  <diagram name="Page-1" id="8HD_SMl9Bg74UhcsQl7r">
    <mxGraphModel dx="1306" dy="747" grid="1" gridSize="10" guides="1" tooltips="1" connect="1" arrows="1" fold="1" page="1" pageScale="1" pageWidth="827" pageHeight="1169" math="0" shadow="0">
      <root>
        <mxCell id="0" />
        <mxCell id="1" parent="0" />
        <mxCell id="waCue26EBu-VEAw0NS1q-1" value="" style="rounded=0;whiteSpace=wrap;html=1;container=0;" vertex="1" parent="1">
          <mxGeometry x="40" y="100" width="720" height="280" as="geometry" />
        </mxCell>
        <mxCell id="waCue26EBu-VEAw0NS1q-4" value="" style="group;fillColor=#f8cecc;strokeColor=#b85450;container=0;" vertex="1" connectable="0" parent="1">
          <mxGeometry x="40" y="100" width="120" height="280" as="geometry" />
        </mxCell>
        <mxCell id="waCue26EBu-VEAw0NS1q-5" value="" style="group;fillColor=#f8cecc;strokeColor=#b85450;gradientColor=none;container=0;" vertex="1" connectable="0" parent="1">
          <mxGeometry x="160" y="100" width="120" height="280" as="geometry" />
        </mxCell>
        <mxCell id="waCue26EBu-VEAw0NS1q-12" value="" style="rounded=0;whiteSpace=wrap;html=1;container=0;" vertex="1" parent="1">
          <mxGeometry x="40" y="100" width="120" height="10" as="geometry" />
        </mxCell>
        <mxCell id="waCue26EBu-VEAw0NS1q-15" value="" style="rounded=0;whiteSpace=wrap;html=1;container=0;" vertex="1" parent="1">
          <mxGeometry x="160" y="100" width="120" height="10" as="geometry" />
        </mxCell>
        <mxCell id="waCue26EBu-VEAw0NS1q-16" value="" style="rounded=0;whiteSpace=wrap;html=1;container=0;" vertex="1" parent="1">
          <mxGeometry x="280" y="430" width="380" height="280" as="geometry" />
        </mxCell>
        <mxCell id="waCue26EBu-VEAw0NS1q-27" value="Washbasin area" style="text;html=1;strokeColor=none;fillColor=none;align=center;verticalAlign=middle;whiteSpace=wrap;rounded=0;" vertex="1" parent="1">
          <mxGeometry x="130" y="225" width="60" height="30" as="geometry" />
        </mxCell>
        <mxCell id="waCue26EBu-VEAw0NS1q-32" value="" style="group" vertex="1" connectable="0" parent="1">
          <mxGeometry x="430" y="430" width="80" height="280" as="geometry" />
        </mxCell>
        <mxCell id="waCue26EBu-VEAw0NS1q-2" value="" style="rounded=0;whiteSpace=wrap;html=1;container=0;fillColor=#f8cecc;strokeColor=#b85450;" vertex="1" parent="waCue26EBu-VEAw0NS1q-32">
          <mxGeometry width="80" height="280" as="geometry" />
        </mxCell>
        <mxCell id="waCue26EBu-VEAw0NS1q-3" value="" style="rounded=0;whiteSpace=wrap;html=1;container=0;" vertex="1" parent="waCue26EBu-VEAw0NS1q-32">
          <mxGeometry width="80" height="10" as="geometry" />
        </mxCell>
        <mxCell id="waCue26EBu-VEAw0NS1q-29" value="Oil tray" style="text;html=1;strokeColor=none;fillColor=none;align=center;verticalAlign=middle;whiteSpace=wrap;rounded=0;" vertex="1" parent="waCue26EBu-VEAw0NS1q-32">
          <mxGeometry x="10" y="125" width="60" height="30" as="geometry" />
        </mxCell>
        <mxCell id="waCue26EBu-VEAw0NS1q-73" value="Drawer" style="rounded=0;whiteSpace=wrap;html=1;container=0;fillColor=#f8cecc;strokeColor=#b85450;" vertex="1" parent="1">
          <mxGeometry x="280" y="110" width="200" height="130" as="geometry" />
        </mxCell>
        <mxCell id="waCue26EBu-VEAw0NS1q-74" value="" style="rounded=0;whiteSpace=wrap;html=1;container=0;" vertex="1" parent="1">
          <mxGeometry x="280" y="100" width="200" height="10" as="geometry" />
        </mxCell>
        <mxCell id="waCue26EBu-VEAw0NS1q-76" value="Drawer" style="rounded=0;whiteSpace=wrap;html=1;container=0;fillColor=#f8cecc;strokeColor=#b85450;" vertex="1" parent="1">
          <mxGeometry x="280" y="250" width="200" height="130" as="geometry" />
        </mxCell>
        <mxCell id="waCue26EBu-VEAw0NS1q-8" value="Drawer" style="rounded=0;whiteSpace=wrap;html=1;container=0;fillColor=#f8cecc;strokeColor=#b85450;" vertex="1" parent="1">
          <mxGeometry x="480" y="110" width="280" height="60" as="geometry" />
        </mxCell>
        <mxCell id="waCue26EBu-VEAw0NS1q-6" value="Drawer" style="rounded=0;whiteSpace=wrap;html=1;container=0;fillColor=#f8cecc;strokeColor=#b85450;" vertex="1" parent="1">
          <mxGeometry x="480" y="180" width="280" height="80" as="geometry" />
        </mxCell>
        <mxCell id="waCue26EBu-VEAw0NS1q-79" value="Drawer" style="rounded=0;whiteSpace=wrap;html=1;container=0;fillColor=#f8cecc;strokeColor=#b85450;" vertex="1" parent="1">
          <mxGeometry x="480" y="270" width="280" height="110" as="geometry" />
        </mxCell>
        <mxCell id="waCue26EBu-VEAw0NS1q-9" value="" style="rounded=0;whiteSpace=wrap;html=1;container=0;" vertex="1" parent="1">
          <mxGeometry x="480" y="100" width="280" height="10" as="geometry" />
        </mxCell>
        <mxCell id="waCue26EBu-VEAw0NS1q-80" value="" style="rounded=0;whiteSpace=wrap;html=1;container=0;" vertex="1" parent="1">
          <mxGeometry x="480" y="170" width="280" height="10" as="geometry" />
        </mxCell>
        <mxCell id="waCue26EBu-VEAw0NS1q-81" value="" style="rounded=0;whiteSpace=wrap;html=1;container=0;" vertex="1" parent="1">
          <mxGeometry x="480" y="260" width="280" height="10" as="geometry" />
        </mxCell>
        <mxCell id="waCue26EBu-VEAw0NS1q-82" value="" style="rounded=0;whiteSpace=wrap;html=1;container=0;" vertex="1" parent="1">
          <mxGeometry x="280" y="240" width="200" height="10" as="geometry" />
        </mxCell>
        <mxCell id="waCue26EBu-VEAw0NS1q-84" value="Drawer" style="rounded=0;whiteSpace=wrap;html=1;container=0;fillColor=#f8cecc;strokeColor=#b85450;" vertex="1" parent="1">
          <mxGeometry x="760" y="110" width="200" height="130" as="geometry" />
        </mxCell>
        <mxCell id="waCue26EBu-VEAw0NS1q-85" value="" style="rounded=0;whiteSpace=wrap;html=1;container=0;" vertex="1" parent="1">
          <mxGeometry x="760" y="100" width="200" height="10" as="geometry" />
        </mxCell>
        <mxCell id="waCue26EBu-VEAw0NS1q-86" value="Drawer" style="rounded=0;whiteSpace=wrap;html=1;container=0;fillColor=#f8cecc;strokeColor=#b85450;" vertex="1" parent="1">
          <mxGeometry x="760" y="250" width="200" height="130" as="geometry" />
        </mxCell>
        <mxCell id="waCue26EBu-VEAw0NS1q-87" value="" style="rounded=0;whiteSpace=wrap;html=1;container=0;" vertex="1" parent="1">
          <mxGeometry x="760" y="240" width="200" height="10" as="geometry" />
        </mxCell>
        <mxCell id="waCue26EBu-VEAw0NS1q-88" value="Single Door" style="rounded=0;whiteSpace=wrap;html=1;container=0;fillColor=#f8cecc;strokeColor=#b85450;" vertex="1" parent="1">
          <mxGeometry x="280" y="430" width="150" height="280" as="geometry" />
        </mxCell>
        <mxCell id="waCue26EBu-VEAw0NS1q-89" value="Single Door" style="rounded=0;whiteSpace=wrap;html=1;container=0;fillColor=#f8cecc;strokeColor=#b85450;" vertex="1" parent="1">
          <mxGeometry x="510" y="430" width="150" height="280" as="geometry" />
        </mxCell>
        <mxCell id="waCue26EBu-VEAw0NS1q-26" value="" style="rounded=0;whiteSpace=wrap;html=1;container=0;" vertex="1" parent="1">
          <mxGeometry x="510" y="430" width="150" height="10" as="geometry" />
        </mxCell>
        <mxCell id="waCue26EBu-VEAw0NS1q-90" value="" style="rounded=0;whiteSpace=wrap;html=1;container=0;" vertex="1" parent="1">
          <mxGeometry x="280" y="430" width="150" height="10" as="geometry" />
        </mxCell>
        <mxCell id="waCue26EBu-VEAw0NS1q-91" value="" style="rounded=0;whiteSpace=wrap;html=1;" vertex="1" parent="1">
          <mxGeometry x="40" y="780" width="800" height="210" as="geometry" />
        </mxCell>
        <mxCell id="waCue26EBu-VEAw0NS1q-92" value="Loft" style="rounded=0;whiteSpace=wrap;html=1;fillColor=#f8cecc;strokeColor=#b85450;" vertex="1" parent="1">
          <mxGeometry x="40" y="780" width="200" height="210" as="geometry" />
        </mxCell>
        <mxCell id="waCue26EBu-VEAw0NS1q-93" value="Loft" style="rounded=0;whiteSpace=wrap;html=1;fillColor=#f8cecc;strokeColor=#b85450;" vertex="1" parent="1">
          <mxGeometry x="240" y="780" width="200" height="210" as="geometry" />
        </mxCell>
        <mxCell id="waCue26EBu-VEAw0NS1q-94" value="Loft" style="rounded=0;whiteSpace=wrap;html=1;fillColor=#f8cecc;strokeColor=#b85450;" vertex="1" parent="1">
          <mxGeometry x="440" y="780" width="200" height="210" as="geometry" />
        </mxCell>
        <mxCell id="waCue26EBu-VEAw0NS1q-95" value="Loft" style="rounded=0;whiteSpace=wrap;html=1;fillColor=#f8cecc;strokeColor=#b85450;" vertex="1" parent="1">
          <mxGeometry x="640" y="780" width="200" height="210" as="geometry" />
        </mxCell>
        <mxCell id="waCue26EBu-VEAw0NS1q-96" value="" style="rounded=0;whiteSpace=wrap;html=1;" vertex="1" parent="1">
          <mxGeometry x="40" y="780" width="200" height="10" as="geometry" />
        </mxCell>
        <mxCell id="waCue26EBu-VEAw0NS1q-97" value="" style="rounded=0;whiteSpace=wrap;html=1;" vertex="1" parent="1">
          <mxGeometry x="240" y="780" width="200" height="10" as="geometry" />
        </mxCell>
        <mxCell id="waCue26EBu-VEAw0NS1q-98" value="" style="rounded=0;whiteSpace=wrap;html=1;" vertex="1" parent="1">
          <mxGeometry x="440" y="780" width="200" height="10" as="geometry" />
        </mxCell>
        <mxCell id="waCue26EBu-VEAw0NS1q-99" value="" style="rounded=0;whiteSpace=wrap;html=1;" vertex="1" parent="1">
          <mxGeometry x="640" y="780" width="200" height="10" as="geometry" />
        </mxCell>
        <mxCell id="waCue26EBu-VEAw0NS1q-100" value="" style="rounded=0;whiteSpace=wrap;html=1;fillColor=#f8cecc;strokeColor=#b85450;" vertex="1" parent="1">
          <mxGeometry x="930" y="470" width="120" height="60" as="geometry" />
        </mxCell>
      </root>
    </mxGraphModel>
  </diagram>
</mxfile>
